<?xml version="1.0" encoding="UTF-8"?>
<svg width="142px" height="128px" viewBox="0 0 142 128" version="1.1" xmlns="http://www.w3.org/2000/svg" xmlns:xlink="http://www.w3.org/1999/xlink">
    <g stroke="none" stroke-width="1" fill="none" fill-rule="evenodd">
        <path d="M140.547615,95.5290767 C137.943855,81.3102383 132.321347,64.9146594 125.334095,49.2970368 C118.345569,33.6794142 108.740115,19.1083179 101.199829,10.9551478 C90.7656746,-0.327353731 83.975085,0.000993366224 70.9588326,0.000993366224 C57.9430049,0.000993366224 51.1515658,-0.327353731 40.7178358,10.9551478 C30.2819819,22.2380764 23.9832609,32.7588468 16.5835698,49.2970368 C9.18387878,65.8339459 3.97380986,81.3102383 1.37004967,95.5290767 C-1.83856444,113.047184 3.30609191,117.598784 18.7018328,121.836127 C26.7802855,124.058981 46.5816057,128 70.9592573,128 C95.3373338,128 115.13653,124.058981 123.215408,121.836127 C138.610724,117.598784 143.755805,113.047184 140.547615,95.5290767" id="Fill-1" fill="#FEFEFE"></path>
        <path d="M76.4587156,96.6045034 L76.4587156,90.3354349 C76.4587156,89.0474046 75.4022938,88 74.1040353,88 C72.8057768,88 71.7497853,89.0474046 71.7497853,90.3354349 L71.7497853,97.6813463 C71.7497853,98.878502 71.3711087,99.896895 70.6550655,100.627305 C69.9738779,101.321451 69.0164283,101.703295 67.9587156,101.703295 C66.9014332,101.703295 65.9439837,101.321451 65.2632263,100.627305 C64.5467529,99.896895 64.1685065,98.878502 64.1685065,97.6813463 L64.1685065,90.3354349 C64.1685065,89.0474046 63.1120847,88 61.8133959,88 C60.5151374,88 59.4587156,89.0474046 59.4587156,90.3354349 L59.4587156,96.6045034 C59.4587156,98.957004 59.5512332,100.979284 61.2449506,102.942261 C61.4183673,103.143209 61.6064147,103.345011 61.8095231,103.548092 C62.6761762,104.416307 63.725713,105.069068 64.928872,105.487604 C66.1453708,105.911259 67.2482666,105.999573 67.9587156,106 C68.669595,105.999573 69.7720604,105.911259 70.9889895,105.487604 C72.1921485,105.069068 73.2416853,104.416307 74.1087688,103.548092 C74.3110165,103.345011 74.5003548,103.143209 74.6733412,102.942261 C76.3666283,100.979284 76.4587156,98.957004 76.4587156,96.6045034 L76.4587156,97.4031761" id="Fill-4" fill="#135E87"></path>
        <path d="M120.053004,92.8604158 C121.006385,93.2244378 121.767829,93.9690284 122.980765,93.5235469 C123.843008,93.2074671 124.458716,92.3720832 124.458716,91.3911752 C124.458716,90.6822232 124.136582,90.0504879 123.632172,89.6347051 C123.632172,89.6347051 123.584293,89.5969453 123.565813,89.5829444 C122.386477,88.6750106 120.371777,88 118.487695,88 C114.431836,88 110.997985,90.7068307 109.860228,94.4255409 C109.525914,95.5171829 109.458716,96.6007637 109.458716,97.7254985 L109.458716,103.638524 C109.458716,104.941451 110.507435,106 111.799329,106 C113.090803,106 114.147922,104.943997 114.147922,103.638524 L114.147922,98.0555791 C114.147922,97.0072126 114.109283,96.0182435 114.603193,95.0131523 C115.313399,93.5697921 116.782949,92.5719134 118.484335,92.5549427 L118.487695,92.555367 C118.998405,92.555367 119.516254,92.6559185 120.053004,92.8604158" id="Fill-6" fill="#135E87"></path>
        <path d="M88.8324388,102.008613 C87.8972213,101.023866 86.9002995,101.462542 85.8689577,101.441322 C83.8096321,101.399317 82.1125564,100.035221 82.1125564,97.5044989 L82.1125564,92.2676707 L87.3053645,92.2676707 C88.4672506,92.2676707 89.4129621,91.2920175 89.4129621,90.0924794 C89.4129621,88.8938074 88.4672506,87.9181543 87.3053645,87.9181543 L82.1125564,87.9181543 L82.1125564,81.4202954 C82.1125564,80.0834817 81.0816343,79 79.7862656,79 C78.4913167,79 77.4587156,80.0834817 77.4587156,81.4202954 L77.4587156,97.2212866 C77.4587156,99.0985421 77.6497048,101.152913 79.894143,103.491363 C81.9366784,105.618486 84.494255,106 85.9671807,106 C86.6383714,106 87.4233161,105.859693 87.5026501,105.844969 C88.5478439,105.649233 89.4587156,104.761921 89.4587156,103.593129 C89.4587156,102.975172 89.2194544,102.416975 88.8324388,102.008613" id="Fill-8" fill="#135E87"></path>
        <path d="M31.5235405,91.9609273 C30.695024,92.8318686 29.7405197,92.5599345 28.7893527,92.6810726 C26.5954111,92.9605257 24.8987462,94.8364957 24.8987462,97.1097151 C24.8987462,99.5755025 26.8945281,101.573864 29.3575498,101.573864 C30.4830974,101.573864 31.5523258,101.111868 32.2928176,100.44895 C33.0320579,99.7851967 33.848059,98.4359687 33.8280344,97.0082098 L33.8280344,82.2757258 C33.8447216,81.0158893 34.8793242,80 36.1408719,80 C37.403254,80 38.4424456,81.007535 38.4587156,82.2673714 L38.4587156,97.1038671 C38.4403597,102.054239 34.3866364,106 29.4376481,106 C24.4782303,106 20.4587156,101.974455 20.4587156,97.0082098 C20.4587156,92.0415468 24.7293717,88.2273669 29.4580898,88.2336327 C29.6842006,88.2344681 30.0955386,88.2645438 30.0955386,88.2645438 C31.2356873,88.3518468 32.1284493,89.3067494 32.1326211,90.4705107 C32.1342898,91.0310878 31.9019214,91.5624247 31.5235405,91.9609273" id="Fill-14" fill="#135E87"></path>
        <path d="M107.392637,95.1391276 C106.691183,91.3412923 103.289386,88 98.5791408,88 C93.7854496,88 89.3310486,91.7982534 89.4615122,97.0008362 C89.4615122,102.169973 93.7846025,106 98.5791408,106 C100.315408,106 102.308791,105.704418 104.078945,104.627027 C105.012946,104.029173 105.260319,103.322618 105.267943,102.679194 C105.267943,101.884424 104.824875,101.19083 104.170863,100.826683 C103.028459,100.193292 101.916129,101.006875 101.012203,101.371022 C100.079896,101.745204 99.1742752,101.779486 98.5846474,101.779486 C95.910143,101.779486 93.7329253,99.6347378 93.7329253,97 C93.7329253,95.7177498 94.2391072,94.5140986 95.1582828,93.6102104 C96.0744933,92.7092489 97.2906007,92.2134064 98.5846474,92.2134064 C99.3356604,92.2134064 99.9731531,92.3016212 100.53906,92.5031356 C100.963491,92.6553166 101.359965,92.8631022 101.717469,93.1390347 C102.532019,93.7477586 102.642575,94.2180982 102.652317,94.3230362 C102.654011,94.3489571 102.653164,94.3602453 102.653164,94.3803131 C102.653164,94.6223812 102.453656,94.8180425 102.208825,94.8180425 L98.608368,94.8180425 C97.3998851,94.8556696 96.429456,95.792168 96.429456,96.9928926 C96.429456,98.2149394 97.4452085,99.1664886 98.6935083,99.1664886 L104.066661,99.1664886 L104.073015,99.1664886 C105.942288,99.1664886 107.458716,97.6651647 107.458716,95.8201793 C107.458716,95.5914898 107.439231,95.366981 107.395178,95.1508338" id="Fill-16" fill="#135E87"></path>
        <path d="M54.169737,100.827221 C53.0295013,100.193427 51.9163737,101.006573 51.0112163,101.37113 C50.0802215,101.745303 49.1737934,101.779584 48.5846152,101.779584 C45.9098052,101.779584 43.7335306,99.6357218 43.7335306,96.999791 C43.7335306,95.7175705 44.2396902,94.5143653 45.1584017,93.6104982 C46.0745718,92.7099756 47.2914727,92.2133086 48.5846152,92.2133086 C49.3355951,92.2133086 49.9730597,92.3023574 50.5393655,92.5034491 C50.9637771,92.6552085 51.35981,92.8634073 51.7168749,93.1393334 C52.5330837,93.7476251 52.6427869,94.2179538 52.6521053,94.3233074 C52.653376,94.3492277 52.6529525,94.3605156 52.6529525,94.3801649 C52.6529525,94.6222274 52.4534536,94.8183022 52.2090568,94.8183022 L48.6083348,94.8183022 C47.4003287,94.8559285 46.4299424,95.7924051 46.4299424,96.9926838 C46.4299424,98.2159563 47.444803,99.1670654 48.6934712,99.1670654 L54.0668109,99.1670654 L54.0731643,99.1670654 C55.9427781,99.1670654 57.4587156,97.6657763 57.4587156,95.8204157 C57.4587156,95.5921496 57.4392316,95.367228 57.3947574,95.1510858 L57.392216,95.1397979 C56.6903695,91.3420509 53.2895699,88 48.5795324,88 C43.7860526,88 39.3322716,91.7985832 39.4614588,97.0014632 C39.4614588,102.17048 43.7843584,106 48.5795324,106 C50.3157234,106 52.3085945,105.704843 54.0782471,104.627058 C55.0126304,104.029218 55.2599921,103.32268 55.2671927,102.678853 C55.2671927,101.884102 54.8249914,101.19136 54.169737,100.827221" id="Fill-18" fill="#135E87"></path>
        <path d="M75.3599401,44.541589 C73.7936666,46.1836887 71.9913677,45.6713026 70.1945972,45.8986049 C66.0494797,46.4250115 62.8450619,49.9611553 62.8450619,54.244635 C62.8450619,58.8917984 66.6159408,62.6586434 71.2675562,62.6586434 C73.3939118,62.6586434 75.4143748,61.7880969 76.8113904,60.5389965 C78.2092566,59.2886214 79.7504391,56.745385 79.7121647,54.053871 L79.7121647,26.2898527 C79.74406,23.9152873 81.6969049,22 84.0818253,22 C86.4650446,22 88.4285213,23.8995673 88.4587156,26.2741327 L88.4587156,54.2344383 C88.4242686,63.5640288 80.7681128,71 71.419378,71 C62.0523565,71 54.4587156,63.4127771 54.4587156,54.053871 C54.4587156,44.6936903 62.525258,37.5054148 71.458503,37.5177359 C71.8850499,37.5185856 72.6620202,37.5750926 72.6620202,37.5750926 C74.8147426,37.7403647 76.5022183,39.5405138 76.5094479,41.7332374 C76.5128501,42.7902992 76.0748209,43.7908542 75.3599401,44.541589" id="Fill-20" fill="#B9C5D8"></path>
        <path d="M64.3596787,36.5419799 C62.7938501,38.1841081 60.9911484,37.6717131 59.1944004,37.8990193 C55.04976,38.4254351 51.8453823,41.9616402 51.8453823,46.2451942 C51.8453823,50.8920133 55.6157888,54.6593485 60.267346,54.6593485 C62.3936749,54.6593485 64.4141127,53.7887869 65.8111108,52.5392399 C67.2093848,51.2892681 68.750548,48.7459876 68.7118488,46.0544269 L68.7118488,18.2899271 C68.7437437,15.9153205 70.6969895,14 73.0814548,14 C75.4646443,14 77.4280965,15.8996003 77.4587156,18.2742068 L77.4587156,46.2345724 C77.4238438,55.5643247 69.7677838,63 60.4200164,63 C51.0522616,63 43.4587156,55.4134953 43.4587156,46.0544269 C43.4587156,36.6940839 51.5264329,29.5056837 60.4591409,29.518005 C60.8848319,29.5188548 61.6626431,29.5753627 61.6626431,29.5753627 C63.814488,29.7406377 65.5019426,31.540818 65.5091721,33.7335796 C65.5125743,34.7906598 65.0745505,35.791232 64.3596787,36.5419799" id="Fill-22" fill="#135E87"></path>
    </g>
</svg>